<?xml version="1.0" standalone="no"?><!DOCTYPE svg PUBLIC "-//W3C//DTD SVG 1.1//EN" "http://www.w3.org/Graphics/SVG/1.1/DTD/svg11.dtd"><svg t="1692805877590" class="icon" viewBox="0 0 1024 1024" version="1.1" xmlns="http://www.w3.org/2000/svg" p-id="14611" xmlns:xlink="http://www.w3.org/1999/xlink" width="200" height="200"><path d="M649.679238 146.285714c38.034286 0 68.85181 30.72 68.85181 68.583619l-0.024381 525.702096h-68.827429V214.844952H190.756571v594.310096h642.486858v-457.142858l-68.827429-0.02438v-68.559239h68.827429c38.034286 0 68.85181 30.72 68.851809 68.583619v457.142858A68.705524 68.705524 0 0 1 833.243429 877.714286H190.756571A68.705524 68.705524 0 0 1 121.904762 809.130667V214.893714A68.705524 68.705524 0 0 1 190.756571 146.285714h458.922667z m-206.506667 342.869334v68.559238h-183.588571v-68.583619h183.588571z m137.679239-137.142858v68.559239H259.584v-68.583619h321.26781z" p-id="14612" fill="#dbdbdb"></path></svg>