<?xml version="1.0" standalone="no"?><!DOCTYPE svg PUBLIC "-//W3C//DTD SVG 1.1//EN" "http://www.w3.org/Graphics/SVG/1.1/DTD/svg11.dtd"><svg t="1708087534205" class="icon" viewBox="0 0 1024 1024" version="1.1" xmlns="http://www.w3.org/2000/svg" p-id="1725" xmlns:xlink="http://www.w3.org/1999/xlink" width="200" height="200"><path d="M742.4 409.6l-25.6 0 0-76.8c0-127.0272-103.3728-230.4-230.4-230.4s-230.4 103.3728-230.4 230.4l0 76.8-25.6 0c-42.3424 0-76.8 34.4576-76.8 76.8l0 409.6c0 42.3424 34.4576 76.8 76.8 76.8l512 0c42.3424 0 76.8-34.4576 76.8-76.8l0-409.6c0-42.3424-34.4576-76.8-76.8-76.8zM307.2 332.8c0-98.816 80.384-179.2 179.2-179.2s179.2 80.384 179.2 179.2l0 76.8-358.4 0 0-76.8zM768 896c0 14.1312-11.4688 25.6-25.6 25.6l-512 0c-14.1312 0-25.6-11.4688-25.6-25.6l0-409.6c0-14.1312 11.4688-25.6 25.6-25.6l512 0c14.1312 0 25.6 11.4688 25.6 25.6l0 409.6z" fill="#ffffff" p-id="1726"></path></svg>