<?xml version="1.0" standalone="no"?><!DOCTYPE svg PUBLIC "-//W3C//DTD SVG 1.1//EN" "http://www.w3.org/Graphics/SVG/1.1/DTD/svg11.dtd"><svg t="1692805885411" class="icon" viewBox="0 0 1024 1024" version="1.1" xmlns="http://www.w3.org/2000/svg" p-id="14867" xmlns:xlink="http://www.w3.org/1999/xlink" width="200" height="200"><path d="M833.243429 283.428571c38.034286 0 68.85181 30.72 68.851809 68.559239v457.142857A68.705524 68.705524 0 0 1 833.243429 877.714286h-87.405715a137.045333 137.045333 0 0 0 18.578286-69.12v-525.165715h68.827429zM649.679238 146.285714c38.034286 0 68.85181 30.72 68.85181 68.559238v594.285715A68.705524 68.705524 0 0 1 649.679238 877.714286H190.756571A68.705524 68.705524 0 0 1 121.904762 809.130667V214.844952A68.705524 68.705524 0 0 1 190.756571 146.285714h458.922667z m-206.506667 342.844953h-183.588571v68.583619h183.588571v-68.583619z m137.679239-137.142857H259.584v68.583619h321.26781v-68.583619z" p-id="14868" fill="#dbdbdb"></path></svg>