<?xml version="1.0" standalone="no"?><!DOCTYPE svg PUBLIC "-//W3C//DTD SVG 1.1//EN" "http://www.w3.org/Graphics/SVG/1.1/DTD/svg11.dtd"><svg t="1708488352023" class="icon" viewBox="0 0 1024 1024" version="1.1" xmlns="http://www.w3.org/2000/svg" p-id="1450" xmlns:xlink="http://www.w3.org/1999/xlink" width="200" height="200"><path d="M930.738818 418.535831H605.170853V93.238515A93.080637 93.080637 0 0 0 512.135324 0a93.058083 93.058083 0 0 0-93.012974 93.261069v325.500303H93.396506a93.306177 93.306177 0 0 0-93.328731 93.261069 93.441502 93.441502 0 0 0 27.222759 66.173634 92.967866 92.967866 0 0 0 65.857878 27.561071h325.973938V930.806367c0 25.756745 10.216993 49.077651 27.087435 65.902986a92.697218 92.697218 0 0 0 65.835323 27.312976 93.148299 93.148299 0 0 0 93.125745-93.215962V605.734592h325.567965c51.490936 0 93.238515-42.108444 93.215961-93.59938-0.022554-51.468382-41.770133-93.59938-93.215961-93.599381z" p-id="1451" fill="#dbdbdb"></path></svg>