<svg width="1024" height="1024" xmlns="http://www.w3.org/2000/svg" t="1692800456548" class="icon" version="1.1" p-id="8351" data-spm-anchor-id="a313x.collections_detail.0.i2.73253a81X9TV5z">
 <g>
  <title>Layer 1</title>
  <path d="m465.33486,146.28571c176.20114,0 319.02476,145.09105 319.02476,324.096a325.97333,325.97333 0 0 1 -65.56038,196.82743l158.91505,161.40191l-48.34743,49.10324l-157.64724,-160.18286a314.85562,314.85562 0 0 1 -206.38476,76.9219c-176.20115,0 -319.04915,-145.06666 -319.04915,-324.07162s142.848,-324.096 319.04915,-324.096zm0,69.43696c-138.45943,0 -250.68496,114.02971 -250.68496,254.65904c0,140.62934 112.22553,254.63467 250.68496,254.63467c138.43504,0 250.66057,-114.00533 250.66057,-254.63467c0,-140.62933 -112.22552,-254.65904 -250.66057,-254.65904z" p-id="8352" id="svg_1" fill="#dbdbdb"/>
  <path fill="#dbdbdb" opacity="NaN" d="m542,467.5" id="svg_5"/>
  <path fill="#dbdbdb" stroke-width="99" d="m371.11,464.62749l0,0c0,-55.22848 44.77152,-100 100.00001,-100l0,0c26.52164,0 51.95703,10.53568 70.71067,29.28932c18.75364,18.75364 29.28931,44.18903 29.28931,70.71068l0,0c0,55.22846 -44.77152,99.99999 -99.99998,99.99999l0,0c-55.22848,0 -100.00001,-44.77153 -100.00001,-99.99999zm100.00001,-100l0,199.99999m-100.00001,-99.99999l199.99999,0" id="svg_8" stroke="#dbdbdb"/>
 </g>

</svg>