<?xml version="1.0" standalone="no"?><!DOCTYPE svg PUBLIC "-//W3C//DTD SVG 1.1//EN" "http://www.w3.org/Graphics/SVG/1.1/DTD/svg11.dtd"><svg t="1708070793376" class="icon" viewBox="0 0 1024 1024" version="1.1" xmlns="http://www.w3.org/2000/svg" p-id="2293" xmlns:xlink="http://www.w3.org/1999/xlink" width="200" height="200"><path d="M512 170.666667c46.933333 0 87.466667 17.066667 121.6 49.066666 34.133333 34.133333 49.066667 72.533333 49.066667 121.6v142.933334c0 17.066667-6.4 36.266667-17.066667 55.466666-12.8 19.2-25.6 29.866667-38.4 29.866667v42.666667c0 4.266667 2.133333 8.533333 4.266667 12.8 2.133333 4.266667 4.266667 8.533333 8.533333 10.666666l202.666667 130.133334c4.266667 2.133333 6.4 4.266667 8.533333 8.533333s4.266667 8.533333 4.266667 12.8v53.333333c0 4.266667-2.133333 6.4-4.266667 10.666667s-6.4 4.266667-10.666667 4.266667h-654.933333c-4.266667 0-6.4-2.133333-10.666667-4.266667s-4.266667-6.4-4.266666-10.666667v-53.333333c0-4.266667 2.133333-8.533333 4.266666-12.8 2.133333-4.266667 4.266667-8.533333 8.533334-8.533333l202.666666-130.133334c4.266667-2.133333 6.4-6.4 8.533334-10.666666 2.133333-4.266667 4.266667-8.533333 4.266666-12.8v-42.666667c-14.933333 0-27.733333-10.666667-38.4-29.866667-12.8-19.2-17.066667-38.4-17.066666-55.466666v-142.933334c0-46.933333 17.066667-87.466667 49.066666-121.6 32-32 72.533333-49.066667 119.466667-49.066666z" p-id="2294" fill="#dbdbdb"></path></svg>